<svg width="139" height="35" viewBox="0 0 139 35" fill="none" xmlns="http://www.w3.org/2000/svg">
<path d="M13.7285 1.40625V27H8.47266V1.40625H13.7285ZM21.6035 1.40625V5.53711H0.720703V1.40625H21.6035ZM28.125 12.1289V27H23.0625V7.98047H27.8262L28.125 12.1289ZM33.8555 7.85742L33.7676 12.5508C33.5215 12.5156 33.2227 12.4863 32.8711 12.4629C32.5312 12.4277 32.2207 12.4102 31.9395 12.4102C31.2246 12.4102 30.6035 12.5039 30.0762 12.6914C29.5605 12.8672 29.127 13.1309 28.7754 13.4824C28.4355 13.834 28.1777 14.2617 28.002 14.7656C27.8379 15.2695 27.7441 15.8438 27.7207 16.4883L26.7012 16.1719C26.7012 14.9414 26.8242 13.8105 27.0703 12.7793C27.3164 11.7363 27.6738 10.8281 28.1426 10.0547C28.623 9.28125 29.209 8.68359 29.9004 8.26172C30.5918 7.83984 31.3828 7.62891 32.2734 7.62891C32.5547 7.62891 32.8418 7.65234 33.1348 7.69922C33.4277 7.73438 33.668 7.78711 33.8555 7.85742ZM45.9141 22.7109V14.2383C45.9141 13.6289 45.8145 13.1074 45.6152 12.6738C45.416 12.2285 45.1055 11.8828 44.6836 11.6367C44.2734 11.3906 43.7402 11.2676 43.084 11.2676C42.5215 11.2676 42.0352 11.3672 41.625 11.5664C41.2148 11.7539 40.8984 12.0293 40.6758 12.3926C40.4531 12.7441 40.3418 13.1602 40.3418 13.6406H35.2793C35.2793 12.832 35.4668 12.0645 35.8418 11.3379C36.2168 10.6113 36.7617 9.97266 37.4766 9.42188C38.1914 8.85938 39.041 8.41992 40.0254 8.10352C41.0215 7.78711 42.1348 7.62891 43.3652 7.62891C44.8418 7.62891 46.1543 7.875 47.3027 8.36719C48.4512 8.85938 49.3535 9.59766 50.0098 10.582C50.6777 11.5664 51.0117 12.7969 51.0117 14.2734V22.4121C51.0117 23.4551 51.0762 24.3105 51.2051 24.9785C51.334 25.6348 51.5215 26.209 51.7676 26.7012V27H46.6523C46.4062 26.4844 46.2188 25.8398 46.0898 25.0664C45.9727 24.2812 45.9141 23.4961 45.9141 22.7109ZM46.582 15.416L46.6172 18.2812H43.7871C43.1191 18.2812 42.5391 18.3574 42.0469 18.5098C41.5547 18.6621 41.1504 18.8789 40.834 19.1602C40.5176 19.4297 40.2832 19.7461 40.1309 20.1094C39.9902 20.4727 39.9199 20.8711 39.9199 21.3047C39.9199 21.7383 40.0195 22.1309 40.2188 22.4824C40.418 22.8223 40.7051 23.0918 41.0801 23.291C41.4551 23.4785 41.8945 23.5723 42.3984 23.5723C43.1602 23.5723 43.8223 23.4199 44.3848 23.1152C44.9473 22.8105 45.3809 22.4355 45.6855 21.9902C46.002 21.5449 46.166 21.123 46.1777 20.7246L47.5137 22.8691C47.3262 23.3496 47.0684 23.8477 46.7402 24.3633C46.4238 24.8789 46.0195 25.3652 45.5273 25.8223C45.0352 26.2676 44.4434 26.6367 43.752 26.9297C43.0605 27.2109 42.2402 27.3516 41.291 27.3516C40.084 27.3516 38.9883 27.1113 38.0039 26.6309C37.0312 26.1387 36.2578 25.4648 35.6836 24.6094C35.1211 23.7422 34.8398 22.7578 34.8398 21.6562C34.8398 20.6602 35.0273 19.7754 35.4023 19.002C35.7773 18.2285 36.3281 17.5781 37.0547 17.0508C37.793 16.5117 38.7129 16.1074 39.8145 15.8379C40.916 15.5566 42.1934 15.416 43.6465 15.416H46.582ZM61.1016 23.3086L65.3203 7.98047H70.6113L64.1953 27H60.9961L61.1016 23.3086ZM58.2012 7.98047L62.4375 23.3262L62.5254 27H59.3086L52.8926 7.98047H58.2012ZM78.2227 0V27H73.1426V0H78.2227ZM87.75 7.98047V27H82.6699V7.98047H87.75ZM82.3535 3.02344C82.3535 2.28516 82.6113 1.67578 83.127 1.19531C83.6426 0.714844 84.334 0.474609 85.2012 0.474609C86.0566 0.474609 86.7422 0.714844 87.2578 1.19531C87.7852 1.67578 88.0488 2.28516 88.0488 3.02344C88.0488 3.76172 87.7852 4.37109 87.2578 4.85156C86.7422 5.33203 86.0566 5.57227 85.2012 5.57227C84.334 5.57227 83.6426 5.33203 83.127 4.85156C82.6113 4.37109 82.3535 3.76172 82.3535 3.02344ZM96.8906 12.041V27H91.8281V7.98047H96.5742L96.8906 12.041ZM96.1523 16.8223H94.7812C94.7812 15.416 94.9629 14.1504 95.3262 13.0254C95.6895 11.8887 96.1992 10.9219 96.8555 10.125C97.5117 9.31641 98.291 8.70117 99.1934 8.2793C100.107 7.8457 101.127 7.62891 102.252 7.62891C103.143 7.62891 103.957 7.75781 104.695 8.01562C105.434 8.27344 106.066 8.68359 106.594 9.24609C107.133 9.80859 107.543 10.5527 107.824 11.4785C108.117 12.4043 108.264 13.5352 108.264 14.8711V27H103.166V14.8535C103.166 14.0098 103.049 13.3535 102.814 12.8848C102.58 12.416 102.234 12.0879 101.777 11.9004C101.332 11.7012 100.781 11.6016 100.125 11.6016C99.4453 11.6016 98.8535 11.7363 98.3496 12.0059C97.8574 12.2754 97.4473 12.6504 97.1191 13.1309C96.8027 13.5996 96.5625 14.1504 96.3984 14.7832C96.2344 15.416 96.1523 16.0957 96.1523 16.8223ZM124.154 7.98047H128.742V26.3672C128.742 28.1016 128.355 29.5723 127.582 30.7793C126.82 31.998 125.754 32.918 124.383 33.5391C123.012 34.1719 121.418 34.4883 119.602 34.4883C118.805 34.4883 117.961 34.3828 117.07 34.1719C116.191 33.9609 115.348 33.6328 114.539 33.1875C113.742 32.7422 113.074 32.1797 112.535 31.5L114.768 28.5117C115.354 29.1914 116.033 29.7188 116.807 30.0938C117.58 30.4805 118.436 30.6738 119.373 30.6738C120.287 30.6738 121.061 30.5039 121.693 30.1641C122.326 29.8359 122.812 29.3496 123.152 28.7051C123.492 28.0723 123.662 27.3047 123.662 26.4023V12.375L124.154 7.98047ZM111.357 17.7188V17.3496C111.357 15.8965 111.533 14.5781 111.885 13.3945C112.248 12.1992 112.758 11.1738 113.414 10.3184C114.082 9.46289 114.891 8.80078 115.84 8.33203C116.789 7.86328 117.861 7.62891 119.057 7.62891C120.322 7.62891 121.383 7.86328 122.238 8.33203C123.094 8.80078 123.797 9.46875 124.348 10.3359C124.898 11.1914 125.326 12.2051 125.631 13.377C125.947 14.5371 126.193 15.8086 126.369 17.1914V18C126.193 19.3242 125.93 20.5547 125.578 21.6914C125.227 22.8281 124.764 23.8242 124.189 24.6797C123.615 25.5234 122.9 26.1797 122.045 26.6484C121.201 27.1172 120.193 27.3516 119.021 27.3516C117.85 27.3516 116.789 27.1113 115.84 26.6309C114.902 26.1504 114.1 25.4766 113.432 24.6094C112.764 23.7422 112.248 22.7227 111.885 21.5508C111.533 20.3789 111.357 19.1016 111.357 17.7188ZM116.42 17.3496V17.7188C116.42 18.5039 116.496 19.2363 116.648 19.916C116.801 20.5957 117.035 21.1992 117.352 21.7266C117.68 22.2422 118.084 22.6465 118.564 22.9395C119.057 23.2207 119.637 23.3613 120.305 23.3613C121.23 23.3613 121.986 23.168 122.572 22.7812C123.158 22.3828 123.598 21.8379 123.891 21.1465C124.184 20.4551 124.354 19.6582 124.4 18.7559V16.4531C124.377 15.7148 124.277 15.0527 124.102 14.4668C123.926 13.8691 123.68 13.3594 123.363 12.9375C123.047 12.5156 122.637 12.1875 122.133 11.9531C121.629 11.7188 121.031 11.6016 120.34 11.6016C119.672 11.6016 119.092 11.7539 118.6 12.0586C118.119 12.3516 117.715 12.7559 117.387 13.2715C117.07 13.7871 116.83 14.3965 116.666 15.0996C116.502 15.791 116.42 16.541 116.42 17.3496ZM138.393 1.40625L137.812 19.1777H133.594L132.996 1.40625H138.393ZM132.855 24.6797C132.855 23.9297 133.113 23.3086 133.629 22.8164C134.156 22.3125 134.848 22.0605 135.703 22.0605C136.57 22.0605 137.262 22.3125 137.777 22.8164C138.293 23.3086 138.551 23.9297 138.551 24.6797C138.551 25.4062 138.293 26.0215 137.777 26.5254C137.262 27.0293 136.57 27.2812 135.703 27.2812C134.848 27.2812 134.156 27.0293 133.629 26.5254C133.113 26.0215 132.855 25.4062 132.855 24.6797Z" fill="white"/>
</svg>
